<svg width="22" height="20" viewBox="0 0 22 20" fill="none" xmlns="http://www.w3.org/2000/svg">
<path d="M2.73214 0C2.00753 0 1.3126 0.28785 0.800226 0.800226C0.28785 1.3126 0 2.00753 0 2.73214L0 13.6744C0.00361124 14.3966 0.293055 15.088 0.80504 15.5975C1.31703 16.1069 2.00989 16.3929 2.73214 16.3929H10.2455C10.4267 16.3929 10.6004 16.3209 10.7285 16.1928C10.8566 16.0647 10.9286 15.891 10.9286 15.7098C10.9286 15.5287 10.8566 15.3549 10.7285 15.2268C10.6004 15.0987 10.4267 15.0268 10.2455 15.0268H2.73214C2.43144 15.0268 2.13912 14.9276 1.90053 14.7446C1.66194 14.5616 1.4904 14.305 1.41252 14.0145L9.11716 9.27289L10.9286 10.3589L20.4911 4.62142V8.87947C20.4911 9.06062 20.563 9.23435 20.6911 9.36245C20.8192 9.49054 20.993 9.5625 21.1741 9.5625C21.3553 9.5625 21.529 9.49054 21.6571 9.36245C21.7852 9.23435 21.8571 9.06062 21.8571 8.87947V2.73214C21.8571 2.00753 21.5693 1.3126 21.0569 0.800226C20.5445 0.28785 19.8496 0 19.125 0H2.73214ZM7.79754 8.48057L1.36607 12.4381V4.62142L7.79754 8.48057ZM1.36607 3.02858V2.73214C1.36607 2.36984 1.51 2.02237 1.76618 1.76618C2.02237 1.51 2.36984 1.36607 2.73214 1.36607H19.125C19.4873 1.36607 19.8348 1.51 20.091 1.76618C20.3471 2.02237 20.4911 2.36984 20.4911 2.73214V3.02858L10.9286 8.76608L1.36607 3.02858Z" fill="#787878"/>
<path d="M17.0756 19.125C18.3436 19.125 19.5598 18.6213 20.4564 17.7246C21.3531 16.8279 21.8568 15.6118 21.8568 14.3438C21.8568 13.0757 21.3531 11.8596 20.4564 10.9629C19.5598 10.0662 18.3436 9.5625 17.0756 9.5625C15.8075 9.5625 14.5914 10.0662 13.6947 10.9629C12.798 11.8596 12.2943 13.0757 12.2943 14.3438C12.2943 15.6118 12.798 16.8279 13.6947 17.7246C14.5914 18.6213 15.8075 19.125 17.0756 19.125V19.125ZM17.7586 12.2946V14.3438C17.7586 14.5249 17.6866 14.6986 17.5585 14.8267C17.4304 14.9548 17.2567 15.0268 17.0756 15.0268C16.8944 15.0268 16.7207 14.9548 16.5926 14.8267C16.4645 14.6986 16.3925 14.5249 16.3925 14.3438V12.2946C16.3925 12.1135 16.4645 11.9398 16.5926 11.8117C16.7207 11.6836 16.8944 11.6116 17.0756 11.6116C17.2567 11.6116 17.4304 11.6836 17.5585 11.8117C17.6866 11.9398 17.7586 12.1135 17.7586 12.2946ZM17.7586 16.3929C17.7586 16.574 17.6866 16.7477 17.5585 16.8758C17.4304 17.0039 17.2567 17.0759 17.0756 17.0759C16.8944 17.0759 16.7207 17.0039 16.5926 16.8758C16.4645 16.7477 16.3925 16.574 16.3925 16.3929C16.3925 16.2117 16.4645 16.038 16.5926 15.9099C16.7207 15.7818 16.8944 15.7098 17.0756 15.7098C17.2567 15.7098 17.4304 15.7818 17.5585 15.9099C17.6866 16.038 17.7586 16.2117 17.7586 16.3929Z" fill="#A00000"/>
</svg>
