<svg  viewBox="0 0 21 20" fill="none" xmlns="http://www.w3.org/2000/svg">
<path d="M10.5656 12C11.0066 12 11.2271 11.7 11.2927 11.2162C11.3452 10.5487 11.5526 10.1975 12.4044 9.64125C13.2877 9.0475 13.7812 8.27875 13.7812 7.15875C13.7812 5.5025 12.5737 4.375 10.8124 4.375C9.47361 4.375 8.46036 4.99 8.05611 5.9875C7.93361 6.25993 7.87193 6.55365 7.87499 6.85C7.87499 7.34125 8.14142 7.65 8.5903 7.65C8.9473 7.65 9.18749 7.46625 9.33055 7.0125C9.53792 6.2725 10.0196 5.86875 10.7402 5.86875C11.5408 5.86875 12.092 6.42625 12.092 7.22375C12.092 7.9275 11.819 8.33 11.0132 8.88C10.2007 9.42125 9.7978 10.0225 9.7978 10.93V11.0687C9.7978 11.6037 10.0708 12 10.5656 12Z" fill="#787878"/>
<path d="M13.4832 3.14122L12.2744 1.96122L13.2129 1.08872L14.0292 1.88497L15.1974 1.87122C15.703 1.86552 16.2047 1.95617 16.673 2.13783C17.1414 2.31949 17.5668 2.5885 17.9244 2.92904C18.282 3.26958 18.5644 3.67478 18.7552 4.1208C18.9459 4.56682 19.0411 5.04466 19.0351 5.52622L19.022 6.63872L19.8567 7.41622C20.2183 7.75268 20.5056 8.15457 20.7017 8.59828C20.8978 9.04198 20.9989 9.51855 20.9989 9.99997C20.9989 10.4814 20.8978 10.958 20.7017 11.4017C20.5056 11.8454 20.2183 12.2473 19.8567 12.5837L19.0207 13.3612L19.0351 14.4737C19.0411 14.9553 18.9459 15.4331 18.7552 15.8791C18.5644 16.3252 18.282 16.7304 17.9244 17.0709C17.5668 17.4114 17.1414 17.6804 16.673 17.8621C16.2047 18.0438 15.703 18.1344 15.1974 18.1287L14.0292 18.1162L13.2129 18.9112C12.8596 19.2555 12.4376 19.5291 11.9717 19.7159C11.5058 19.9027 11.0054 19.999 10.4999 19.999C9.99443 19.999 9.49403 19.9027 9.02814 19.7159C8.56225 19.5291 8.14027 19.2555 7.78698 18.9112L6.97061 18.115L5.80248 18.1287C5.29684 18.1344 4.79511 18.0438 4.32679 17.8621C3.85847 17.6804 3.43301 17.4114 3.07545 17.0709C2.71788 16.7304 2.43542 16.3252 2.24467 15.8791C2.05393 15.4331 1.95875 14.9553 1.96473 14.4737L1.97786 13.3612L1.14311 12.5837C0.781567 12.2473 0.494287 11.8454 0.29815 11.4017C0.102014 10.958 0.000976562 10.4814 0.000976562 9.99997C0.000976562 9.51855 0.102014 9.04198 0.29815 8.59828C0.494287 8.15457 0.781567 7.75268 1.14311 7.41622L1.97917 6.63872L1.96473 5.52622C1.95875 5.04466 2.05393 4.56682 2.24467 4.1208C2.43542 3.67478 2.71788 3.26958 3.07545 2.92904C3.43301 2.5885 3.85847 2.31949 4.32679 2.13783C4.79511 1.95617 5.29684 1.86552 5.80248 1.87122L6.97061 1.88372L7.78698 1.08872C8.14027 0.744396 8.56225 0.470796 9.02814 0.283999C9.49403 0.0972024 9.99443 0.000976562 10.4999 0.000976562C11.0054 0.000976562 11.5058 0.0972024 11.9717 0.283999C12.4376 0.470796 12.8596 0.744396 13.2129 1.08872L12.2744 1.96122C12.0434 1.73595 11.7674 1.55695 11.4626 1.43474C11.1579 1.31253 10.8306 1.24957 10.4999 1.24957C10.1693 1.24957 9.84195 1.31253 9.53721 1.43474C9.23248 1.55695 8.95647 1.73595 8.72542 1.96122L7.51792 3.14122L5.78542 3.12122C5.4549 3.1177 5.12698 3.17713 4.82092 3.296C4.51486 3.41488 4.23683 3.59082 4.00316 3.81347C3.7695 4.03612 3.58491 4.30101 3.46025 4.59256C3.33559 4.88411 3.27336 5.19644 3.27723 5.51122L3.29823 7.15872L2.05923 8.30997C1.8227 8.53002 1.63475 8.79288 1.50643 9.08311C1.37811 9.37333 1.312 9.68506 1.312 9.99997C1.312 10.3149 1.37811 10.6266 1.50643 10.9168C1.63475 11.2071 1.8227 11.4699 2.05923 11.69L3.29823 12.84L3.27723 14.49C3.27354 14.8047 3.33593 15.1171 3.46076 15.4085C3.58558 15.7 3.77031 15.9648 4.00409 16.1874C4.23788 16.4099 4.51601 16.5857 4.82214 16.7044C5.12826 16.8231 5.45622 16.8824 5.78673 16.8787L7.51661 16.8587L8.72542 18.0387C8.95647 18.264 9.23248 18.443 9.53721 18.5652C9.84195 18.6874 10.1693 18.7504 10.4999 18.7504C10.8306 18.7504 11.1579 18.6874 11.4626 18.5652C11.7674 18.443 12.0434 18.264 12.2744 18.0387L13.4819 16.8587L15.2144 16.8787C15.5449 16.8822 15.8729 16.8228 16.1789 16.7039C16.485 16.5851 16.763 16.4091 16.9967 16.1865C17.2303 15.9638 17.4149 15.6989 17.5396 15.4074C17.6642 15.1158 17.7265 14.8035 17.7226 14.4887L17.7016 12.8412L18.9406 11.69C19.1771 11.4699 19.3651 11.2071 19.4934 10.9168C19.6217 10.6266 19.6878 10.3149 19.6878 9.99997C19.6878 9.68506 19.6217 9.37333 19.4934 9.08311C19.3651 8.79288 19.1771 8.53002 18.9406 8.30997L17.7016 7.15997L17.7226 5.50997C17.7263 5.19519 17.6639 4.88289 17.5391 4.5914C17.4143 4.29991 17.2295 4.03512 16.9957 3.81258C16.762 3.59004 16.4838 3.41425 16.1777 3.29552C15.8716 3.1768 15.5436 3.11754 15.2131 3.12122L13.4832 3.14122Z" fill="#787878"/>
<path d="M9.18884 13.75C9.18884 13.4185 9.32712 13.1005 9.57327 12.8661C9.81941 12.6317 10.1532 12.5 10.5013 12.5C10.8494 12.5 11.1833 12.6317 11.4294 12.8661C11.6756 13.1005 11.8138 13.4185 11.8138 13.75C11.8138 14.0815 11.6756 14.3995 11.4294 14.6339C11.1833 14.8683 10.8494 15 10.5013 15C10.1532 15 9.81941 14.8683 9.57327 14.6339C9.32712 14.3995 9.18884 14.0815 9.18884 13.75Z" fill="#787878"/>
</svg>
