<svg viewBox="0 0 70 70" fill="none" xmlns="http://www.w3.org/2000/svg">
<circle cx="35" cy="35" r="35" fill="black"/>
<path fill-rule="evenodd" clip-rule="evenodd" d="M33.3575 18.3558C33.568 18.131 33.8223 17.9518 34.1049 17.8293C34.3874 17.7068 34.6921 17.6436 35 17.6436C35.308 17.6436 35.6126 17.7068 35.8951 17.8293C36.1777 17.9518 36.432 18.131 36.6425 18.3558L50.9188 33.5883C52.2688 35.0238 51.2473 37.375 49.2763 37.375H42.875V39.625C42.875 40.2218 42.638 40.7941 42.216 41.216C41.794 41.638 41.2217 41.875 40.625 41.875H29.375C28.7783 41.875 28.206 41.638 27.784 41.216C27.3621 40.7941 27.125 40.2218 27.125 39.625V37.375H20.7215C18.755 37.375 17.7335 35.0238 19.079 33.586L33.3575 18.3558ZM49.2785 35.125L35 19.8948L20.7215 35.125H27.125C27.7217 35.125 28.294 35.3621 28.716 35.7841C29.138 36.206 29.375 36.7783 29.375 37.375V39.625H40.625V37.375C40.625 36.7783 40.8621 36.206 41.284 35.7841C41.706 35.3621 42.2783 35.125 42.875 35.125H49.2785ZM27.125 46.375C27.125 45.7783 27.3621 45.206 27.784 44.7841C28.206 44.3621 28.7783 44.125 29.375 44.125H40.625C41.2217 44.125 41.794 44.3621 42.216 44.7841C42.638 45.206 42.875 45.7783 42.875 46.375V48.625C42.875 49.2218 42.638 49.7941 42.216 50.216C41.794 50.638 41.2217 50.875 40.625 50.875H29.375C28.7783 50.875 28.206 50.638 27.784 50.216C27.3621 49.7941 27.125 49.2218 27.125 48.625V46.375ZM40.625 46.375H29.375V48.625H40.625V46.375Z" fill="white" fill-opacity="0.63"/>
</svg>
